<svg width="195" height="58" xmlns="http://www.w3.org/2000/svg" version="1.1" data-name="Layer 1">
 <g>
  <title>Layer 1</title>
  <g id="svg_2">
   <g id="svg_3">
    <path id="svg_4" stroke-width="0px" fill="#7bc3ca" d="m21.11361,57.42637c-2.97,0 -5.72,-0.46 -8.24,-1.39c-2.52,-0.92 -4.71,-2.22 -6.55,-3.9c-1.84,-1.67 -3.28,-3.64 -4.32,-5.91c-1.04,-2.27 -1.55,-4.74 -1.55,-7.43s0.52,-5.16 1.55,-7.43s2.48,-4.24 4.35,-5.91c1.86,-1.67 4.06,-2.97 6.58,-3.9c2.52,-0.92 5.27,-1.39 8.24,-1.39s5.55,0.44 8.07,1.33c2.52,0.89 4.65,2.22 6.38,4l-2.65,2.46c-1.62,-1.53 -3.41,-2.64 -5.36,-3.32c-1.96,-0.68 -4.06,-1.02 -6.32,-1.02c-2.37,0 -4.57,0.38 -6.6,1.12c-2.03,0.75 -3.8,1.81 -5.31,3.19c-1.51,1.38 -2.68,2.98 -3.53,4.81c-0.85,1.83 -1.27,3.84 -1.27,6.04s0.42,4.21 1.27,6.04c0.85,1.83 2.02,3.43 3.53,4.81c1.5,1.38 3.27,2.44 5.31,3.19c2.03,0.75 4.23,1.12 6.6,1.12s4.37,-0.35 6.32,-1.05c1.96,-0.7 3.74,-1.81 5.36,-3.35l2.65,2.46c-1.73,1.78 -3.86,3.12 -6.38,4.03c-2.52,0.91 -5.23,1.36 -8.13,1.36l0,0.04z" class="cls-1"/>
    <path id="svg_5" stroke-width="0px" fill="#7bc3ca" d="m38.21361,57.10637l18.06,-36.61l4.12,0l18.06,36.61l-4.4,0l-16.6,-34.36l1.69,0l-16.6,34.36l-4.35,0l0.02,0zm7.12,-9.78l1.24,-3.14l22.97,0l1.24,3.14l-25.46,0l0.01,0z" class="cls-1"/>
    <path id="svg_6" stroke-width="0px" fill="#7bc3ca" d="m85.01361,57.10637l0,-36.61l4.18,0l0,36.61l-4.18,0zm3.61,-9.1l-0.17,-4.71l23.93,-22.8l4.8,0l-17.44,16.95l-2.37,2.35l-8.75,8.21zm24.79,9.1l-17.05,-18.2l2.82,-2.82l19.19,21.03l-4.97,0l0.01,-0.01z" class="cls-1"/>
   </g>
   <path id="svg_7" stroke-width="0px" fill="#7bc3ca" d="m178.81361,56.58637c-2.94,0 -5.75,-0.44 -8.44,-1.33c-2.69,-0.89 -4.77,-2.03 -6.24,-3.43l1.64,-2.98c1.39,1.25 3.26,2.31 5.62,3.16c2.35,0.85 4.83,1.28 7.42,1.28s4.51,-0.29 6.07,-0.86c1.56,-0.58 2.71,-1.35 3.44,-2.33c0.73,-0.98 1.1,-2.06 1.1,-3.24c0,-1.43 -0.44,-2.58 -1.33,-3.45c-0.88,-0.87 -2.04,-1.56 -3.47,-2.07c-1.43,-0.5 -3.01,-0.95 -4.74,-1.33s-3.46,-0.79 -5.19,-1.23c-1.73,-0.44 -3.32,-1.02 -4.77,-1.75c-1.45,-0.73 -2.62,-1.7 -3.5,-2.9c-0.88,-1.2 -1.33,-2.78 -1.33,-4.73c0,-1.81 0.52,-3.48 1.55,-5s2.62,-2.74 4.77,-3.66c2.14,-0.92 4.89,-1.39 8.24,-1.39c2.22,0 4.42,0.29 6.6,0.86s4.06,1.37 5.65,2.38l-1.41,3.09c-1.69,-1.05 -3.49,-1.81 -5.39,-2.3s-3.74,-0.73 -5.5,-0.73c-2.37,0 -4.33,0.3 -5.87,0.89c-1.54,0.59 -2.68,1.39 -3.42,2.38c-0.73,0.99 -1.1,2.12 -1.1,3.37c0,1.43 0.44,2.58 1.33,3.45c0.88,0.87 2.05,1.55 3.5,2.04c1.45,0.49 3.04,0.92 4.77,1.31c1.73,0.38 3.45,0.8 5.17,1.25c1.71,0.45 3.29,1.04 4.74,1.75c1.45,0.72 2.62,1.67 3.5,2.85c0.88,1.19 1.33,2.74 1.33,4.66c0,1.78 -0.53,3.43 -1.58,4.94c-1.05,1.52 -2.66,2.74 -4.83,3.66c-2.16,0.92 -4.94,1.39 -8.33,1.39z" class="cls-1"/>
   <rect id="svg_8" fill="#e94c9a" stroke-width="0px" height="3.65" width="33.33" y="53.22637" x="124.45361" class="cls-4"/>
   <rect id="svg_9" fill="#e94c9a" stroke-width="0px" height="3.65" width="33.33" y="36.84637" x="124.45361" class="cls-4"/>
   <rect id="svg_10" fill="#e94c9a" stroke-width="0px" height="3.65" width="33.33" y="20.46637" x="124.45361" class="cls-4"/>
   <g id="svg_11">
    <path id="svg_12" fill="#e84e9b" stroke-width="0px" d="m57.37361,12.20637l0,-4.1l0.48,1.17l-4.88,-7.44l2.21,0l3.93,6l-1.25,0l3.92,-6l2.05,0l-4.86,7.44l0.46,-1.17l0,4.1l-2.06,0z" class="cls-3"/>
    <path id="svg_13" fill="#e84e9b" stroke-width="0px" d="m69.99361,12.35637c-1.53,0 -2.72,-0.4 -3.59,-1.2c-0.87,-0.8 -1.3,-1.96 -1.3,-3.48l0,-5.84l2.08,0l0,5.78c0,1.07 0.25,1.84 0.74,2.33c0.5,0.48 1.2,0.73 2.1,0.73s1.6,-0.24 2.09,-0.73c0.49,-0.48 0.74,-1.26 0.74,-2.33l0,-5.78l2.05,0l0,5.84c0,1.52 -0.43,2.68 -1.3,3.48c-0.87,0.8 -2.07,1.2 -3.61,1.2z" class="cls-3"/>
    <path id="svg_14" fill="#e84e9b" stroke-width="0px" d="m77.81361,12.20637l0,-10.37l2.08,0l0,8.74l5.85,0l0,1.63l-7.93,0z" class="cls-3"/>
    <path id="svg_15" fill="#e84e9b" stroke-width="0px" d="m87.39361,12.20637l0,-10.37l2.08,0l0,10.37l-2.08,0z" class="cls-3"/>
    <path id="svg_16" fill="#e84e9b" stroke-width="0px" d="m90.91361,12.20637l5.04,-10.37l2.05,0l5.05,10.37l-2.19,0l-4.32,-9.35l0.83,0l-4.33,9.35l-2.13,0zm2.32,-2.4l0.58,-1.51l6.03,0l0.56,1.51l-7.17,0z" class="cls-3"/>
    <path id="svg_17" fill="#e84e9b" stroke-width="0px" d="m103.75361,5.70637l0.91,-3.29l0.3,1.11c-0.38,0 -0.7,-0.11 -0.95,-0.33c-0.25,-0.22 -0.38,-0.51 -0.38,-0.87s0.12,-0.66 0.38,-0.88c0.25,-0.22 0.56,-0.33 0.92,-0.33c0.38,0 0.7,0.11 0.94,0.34c0.24,0.23 0.36,0.52 0.36,0.88c0,0.11 0,0.22 -0.02,0.33c-0.02,0.11 -0.05,0.24 -0.1,0.39c-0.05,0.14 -0.13,0.33 -0.22,0.56l-0.85,2.1l-1.28,0l-0.01,-0.01z" class="cls-3"/>
    <path id="svg_18" fill="#e84e9b" stroke-width="0px" d="m111.85361,12.35637c-0.88,0 -1.71,-0.12 -2.5,-0.35c-0.79,-0.23 -1.43,-0.53 -1.91,-0.9l0.72,-1.5c0.45,0.33 1,0.6 1.66,0.82c0.66,0.22 1.34,0.33 2.03,0.33c0.59,0 1.06,-0.06 1.42,-0.18c0.36,-0.12 0.63,-0.28 0.8,-0.48c0.17,-0.2 0.26,-0.43 0.26,-0.69c0,-0.32 -0.12,-0.57 -0.37,-0.76c-0.25,-0.19 -0.56,-0.35 -0.95,-0.46c-0.39,-0.11 -0.82,-0.22 -1.3,-0.31c-0.47,-0.09 -0.95,-0.21 -1.42,-0.35c-0.47,-0.14 -0.91,-0.31 -1.3,-0.53c-0.39,-0.21 -0.71,-0.5 -0.95,-0.85c-0.24,-0.36 -0.36,-0.81 -0.36,-1.36s0.16,-1.08 0.49,-1.55c0.33,-0.47 0.82,-0.84 1.49,-1.13c0.67,-0.28 1.51,-0.42 2.54,-0.42c0.67,0 1.34,0.08 2,0.24s1.24,0.38 1.73,0.68l-0.66,1.5c-0.5,-0.28 -1.02,-0.48 -1.55,-0.62c-0.53,-0.13 -1.04,-0.2 -1.54,-0.2c-0.57,0 -1.03,0.06 -1.39,0.19c-0.36,0.13 -0.63,0.3 -0.79,0.51c-0.17,0.21 -0.25,0.45 -0.25,0.7c0,0.32 0.12,0.57 0.36,0.76c0.24,0.19 0.55,0.34 0.94,0.45c0.39,0.11 0.82,0.21 1.3,0.31c0.48,0.1 0.95,0.22 1.42,0.35c0.47,0.13 0.9,0.31 1.3,0.52c0.39,0.21 0.71,0.49 0.95,0.84s0.36,0.8 0.36,1.34s-0.16,1.07 -0.49,1.53c-0.33,0.47 -0.82,0.84 -1.5,1.13c-0.67,0.28 -1.52,0.42 -2.54,0.42l0,0.02z" class="cls-3"/>
   </g>
   <path id="svg_19" stroke-width="0px" fill="#7bc3ca" d="m145.83361,11.94637c0,2.41 -2.11,4.37 -4.71,4.37s-4.71,-1.95 -4.71,-4.37s2.11,-4.36 4.71,-4.36s4.71,1.95 4.71,4.36z" class="cls-1"/>
  </g>
 </g>

</svg>